<svg width="744.09" height="385.52" xmlns="http://www.w3.org/2000/svg"><g style="fill-opacity:.94118;fill-rule:evenodd;fill:#fff;stroke-width:1pt"><path d="M3.86 0h-.01C2.91 0 2.08.31 1.3.94.72 1.4.32 2.02 0 2.71h.04C.36 2.02.76 1.4 1.33.94 2.11.31 2.94.01 3.86 0z" style="fill-opacity:.94118;fill:#fff" transform="translate(354.633 230.6) scale(1.7052)"/></g><path d="m92.939 358.46-59.31 258.77H450.772c-17-1.484-30.423-7.452-38.42-18.331-1.484-2.012-2.71-4.18-3.784-6.448a222.987 222.987 0 0 1-1.972-5.062c-1.705-5.423-2.385-11.44-2.078-17.852.853-17.871 9.238-39.128 23.767-61.388 15.432-23.657 37.798-48.451 65.49-71.46 6.208-5.153 12.626-10.241 19.345-15.186 8.304-6.11 16.673-11.737 25.045-17 30.847-19.42 61.618-33.01 88.885-39.912-26.056 8.5-55.328 22.93-84.25 42.577-1.04.702-2.067 1.422-3.09 2.131-16.046 11.118-30.583 22.926-43.27 34.85-40.823 38.385-62.4 78.16-52.595 101.46a29.103 29.103 0 0 0 2.505 4.583c10.538 15.5 36.656 18.18 69.754 9.858 2.25-.562 4.502-1.2 6.82-1.865 10.573-3.052 21.798-7.174 33.359-12.256 2.78-1.228 5.589-2.49 8.42-3.837.29-.136.562-.272.852-.426 36.492-18.132 64.536-38.995 70.607-51.53 1.33-2.726 1.65-5.051.746-6.874-4.331-8.782-34.64-2.85-71.353 13.056a379.91 379.91 0 0 0-8.953 3.997 284.108 284.108 0 0 1 7.62-6.821c4.161-3.585 8.47-7.09 13.057-10.551a260.602 260.602 0 0 1 21.582-14.708c33.456-25.241 50.37-49.117 46.84-57.978-.665-1.67-2.08-2.818-4.263-3.517-6.975-2.219-19.704.429-35.17 6.767-12.755 5.232-27.405 12.991-42.258 22.647l-2.025 1.332-.373.214-7.141 4.742 4.103-7.513c6.088-11.144 16.004-22.771 28.35-33.572 9.054-7.897 19.398-15.338 30.533-21.848 4.212-2.466 8.418-4.756 12.63-6.821 4.313-2.108 8.63-3.981 12.841-5.649 12.237-4.84 23.918-7.78 34.104-8.58H92.944zm305.98.373c-1.671 25.505 3.274 62.862 14.494 104.34a579.007 579.007 0 0 0 6.554 22.488 561.785 561.785 0 0 0 4.583 13.855c-.92 1.354-1.848 2.7-2.717 4.05-14 21.455-22.183 41.73-24.246 59.363-5.918-19.815-10.372-41.518-12.896-64.532a392.514 392.514 0 0 1-1.652-19.557c-2.763-46.796 3.346-89.217 15.88-120zm-279.39 33.199c.32-.008.634 0 .96 0h63.04c5.388 0 9.555 1.01 12.522 3.037 2.95 2.04 4.056 4.678 3.357 7.887l-7.513 33.945h-22.221l7.3-33.039h-55.633l-20.09 90.803-7.247 32.879h55.58l.053-.213 11.137-50.304h-26.11l2.504-11.35H185.5l-13.855 62.773c-.188.893-.516 1.703-.96 2.504-1.142 2.08-3.135 3.863-5.914 5.33-3.854 2.028-8.467 3.037-13.855 3.037H87.929c-5.389 0-9.556-1.009-12.523-3.038-2.95-2.029-4.074-4.62-3.358-7.833l27.763-125.49c.717-3.21 2.95-5.847 6.821-7.887.137-.073.29-.09.427-.16 3.533-1.77 7.68-2.764 12.469-2.877zm98.796 0h79.346c5.32 0 9.502 1.01 12.469 3.037 2.984 2.04 4.127 4.678 3.41 7.887l-14.814 66.93c-.699 3.189-2.986 5.79-6.874 7.833-3.888 2.05-8.464 3.091-13.802 3.091h-57.658l-11.137 50.251-1.812 8.26h-21.742l1.652-7.46 30.96-139.83zm109.61 0h21.742l-24.619 111.21-5.382 24.299h52.009a309.59 309.59 0 0 0 1.865 11.777h-78.227l6.181-27.923 26.431-119.37zm-90.483 11.83-14.441 65.118h54.194l14.388-65.118h-54.141zm-45.561 145.69c.213-.007.425 0 .64 0 2.523 0 4.727.443 6.5 1.279 1.893.887 3.247 2.204 3.997 3.943.734 1.688.925 3.605.533 5.702l-.16.8h-6.234l.053-.747c.161-1.465-.02-2.617-.586-3.41-.074-.1-.18-.23-.267-.32a3.477 3.477 0 0 0-.533-.426c-.872-.55-2.237-.853-3.996-.853-2.336 0-4.082.407-5.276 1.226-1.16.801-1.893 1.697-2.131 2.77-.239 1.092.153 1.666.426 1.973l.053.053c.346.294 1.546.985 5.276 1.865 3.376.818 5.612 1.554 6.874 2.185 1.91.972 3.244 2.231 3.943 3.783.7 1.535.853 3.332.427 5.276-.427 1.893-1.392 3.638-2.825 5.275-1.415 1.637-3.216 2.933-5.382 3.837a18.195 18.195 0 0 1-6.927 1.385c-3.07 0-5.534-.464-7.46-1.385-2.013-.955-3.464-2.462-4.317-4.423-.818-1.91-.993-4.078-.533-6.448l.16-.746h6.128l-.053.746c-.153 1.415-.002 2.558.373 3.41.358.82 1.04 1.497 2.132 2.026 1.159.562 2.609.852 4.263.852 1.483 0 2.839-.25 4.05-.693 1.193-.426 2.142-.989 2.824-1.705.665-.716 1.055-1.473 1.225-2.291.17-.733.13-1.354-.16-1.865-.324-.546-.965-1.03-1.971-1.44l-5.222-1.544c-2.916-.734-4.88-1.433-6.022-2.132-1.552-.92-2.67-2.102-3.25-3.517-.58-1.398-.642-2.948-.267-4.636.392-1.808 1.264-3.528 2.611-5.062 1.364-1.552 3.125-2.77 5.222-3.57a18.345 18.345 0 0 1 5.862-1.173zm55.953.107c.337-.027.654 0 1.012 0l3.837.426 1.28.106-1.866 4.743-.373.746-2.93-.266c-.866 0-1.502.133-1.92.426-.027.02-.08.084-.106.107-.056.049-.15.134-.213.213-.256.336-.569.938-.8 2.025 0 0-.11.46-.212.852h4.582l-1.172 5.276h-4.476c-.341 1.535-4.53 20.303-4.53 20.303h-6.18s4.017-18.035 4.529-20.303h-3.57l1.172-5.276h3.517c.17-.733.426-1.652.426-1.652.375-1.705.767-2.93 1.279-3.783a8.044 8.044 0 0 1 2.93-2.878c1.026-.595 2.323-.952 3.784-1.065zm14.761.266-2.025 9.112h3.997l-1.173 5.276h-3.996c-.324 1.466-2.878 12.842-2.878 12.842s-.213 1.366-.213 1.758v.107c.002.003.051-.002.053 0l.64.053 2.93-.213-.32 4.743.054.852-4.21.48c-1.67 0-2.897-.273-3.783-.853-.938-.614-1.484-1.428-1.705-2.451-.035-.188-.107-.46-.107-.853 0-.767.145-2.065.64-4.316 0 0 2.24-10.035 2.717-12.15h-2.93l1.172-5.275h2.93c.273-1.228 1.226-5.436 1.226-5.436l4.956-2.61 2.025-1.067zm-196.37.213h23.98l-1.332 5.968H71.35a3652.79 3652.79 0 0 0-1.759 7.887H84.78l-1.332 5.968H68.26c-.324 1.484-3.25 14.654-3.25 14.654h-6.448l7.673-34.477zm32.133 8.42c.24-.03.504 0 .746 0 1.535 0 2.952.466 4.316 1.438l.853.587-3.304 5.435-.906-.64a3.894 3.894 0 0 0-2.131-.639c-.648 0-1.251.23-1.865.64a4.708 4.708 0 0 0-1.599 1.758c-.716 1.313-1.24 2.784-1.599 4.37l-2.877 13.109H83.82l5.702-25.578h5.755s-.198.776-.266 1.066c.273-.205.56-.486.8-.64.825-.493 1.698-.8 2.557-.906zm18.331 0c.372-.029.739 0 1.12 0 3.478 0 6.11 1.219 7.833 3.623 1.074 1.552 1.652 3.47 1.652 5.755 0 1.262-.156 2.62-.48 4.104l-.48 1.865h-17.372a11.73 11.73 0 0 0-.053 1.065c0 1.33.273 2.377.853 3.144.275.376.595.713.959.96.687.448 1.573.692 2.61.692 1.263 0 2.371-.347 3.411-1.012.99-.631 1.936-1.64 2.771-3.037h6.608l-.586 1.278c-1.262 2.558-3.023 4.553-5.222 5.969-2.2 1.415-4.828 2.185-7.727 2.185-3.769 0-6.574-1.22-8.313-3.624-1.722-2.353-2.093-5.606-1.172-9.699.92-4.16 2.758-7.485 5.435-9.805 2.4-2.08 5.122-3.234 8.153-3.463zm27.763 0c.372-.029.739 0 1.119 0 3.479 0 6.111 1.219 7.833 3.623 1.075 1.552 1.652 3.47 1.652 5.755 0 1.245-.155 2.584-.48 4.05l-.479 1.919h-17.372c-.017.238-.036.454-.053.692-.013.09.006.226 0 .32v.053c0 .256.036.508.053.746.085.972.339 1.785.8 2.398.087.12.17.267.266.374.78.835 1.886 1.278 3.304 1.278a6.112 6.112 0 0 0 3.41-1.012c.99-.631 1.936-1.64 2.771-3.037h6.661l-.64 1.278c-1.261 2.558-3.022 4.553-5.221 5.969-2.2 1.415-4.828 2.185-7.727 2.185-3.769 0-6.574-1.22-8.313-3.624-1.126-1.535-1.652-3.49-1.652-5.808 0-.359.019-.744.053-1.12a19.25 19.25 0 0 1 .426-2.77c.921-4.144 2.705-7.486 5.383-9.805 2.4-2.081 5.175-3.235 8.206-3.464zm75.616 0c.38-.03.731 0 1.119 0 3.547 0 6.273 1.2 8.047 3.57 1.756 2.37 2.182 5.567 1.278 9.592-.699 3.137-1.71 5.672-3.09 7.513-1.382 1.842-3.142 3.347-5.223 4.37-2.063 1.023-4.248 1.545-6.447 1.545-3.616 0-6.308-1.236-8.047-3.623-1.125-1.518-1.705-3.472-1.705-5.809 0-1.261.138-2.602.48-4.103 1.023-4.57 3.111-8.05 6.18-10.285 2.254-1.626 4.742-2.566 7.408-2.77zm93.627 0c.45-.028.866 0 1.332 0 2.149 0 3.837.217 5.116.746 1.364.545 2.332 1.317 2.878 2.238.528.87.799 1.937.799 3.25l-.64 3.89-1.172 5.276c-1.006 4.502-1.228 6.19-1.279 6.82-.05.853.028 1.685.267 2.452l.426 1.386h-6.288l-.267-.8c-.102-.375-.072-.852-.106-1.279-1.194.734-2.39 1.384-3.464 1.759-1.586.545-3.231.852-4.902.852-2.9 0-5.046-.754-6.342-2.238-.989-1.091-1.438-2.425-1.438-3.943 0-.58.076-1.18.213-1.812.29-1.296.816-2.496 1.652-3.57.818-1.057 1.786-1.927 2.877-2.558 1.058-.63 2.236-1.079 3.464-1.385l3.783-.64c2.916-.34 5.093-.765 6.661-1.225.035-.171.107-.374.107-.374.247-1.097.216-1.921-.053-2.344-.02-.027-.085-.083-.107-.107-.057-.061-.146-.158-.213-.213-.641-.507-1.735-.746-3.197-.746-1.654 0-2.878.27-3.73.8-.836.528-1.61 1.496-2.292 2.877h-6.448l.586-1.279c.768-1.773 1.682-3.244 2.825-4.37 1.142-1.125 2.685-1.997 4.476-2.61a17.746 17.746 0 0 1 4.476-.853zm27.017 0c.24-.03.504 0 .746 0 1.552 0 3.005.466 4.37 1.438l.799.587-3.304 5.435-.906-.64c-.665-.426-1.345-.639-2.078-.639-.648 0-1.287.23-1.918.64-.648.426-1.12.99-1.546 1.758a17.495 17.495 0 0 0-1.598 4.37l-2.931 13.109h-6.182l5.702-25.578h5.755s-.145.776-.213 1.066c.273-.205.544-.486.8-.64.812-.493 1.645-.8 2.504-.906zm18.278 0c.372-.029.739 0 1.12 0 3.478 0 6.127 1.219 7.833 3.623 1.09 1.552 1.651 3.47 1.651 5.755 0 1.262-.208 2.62-.532 4.104l-.427 1.865h-17.372c-.034.358-.106.741-.106 1.065 0 1.33.29 2.377.852 3.144.088.12.223.267.32.374.056.06.154.157.213.213.762.693 1.8 1.065 3.09 1.065 1.263 0 2.371-.347 3.411-1.012.99-.631 1.919-1.64 2.771-3.037h6.661l-.64 1.278c-1.261 2.558-3.039 4.553-5.221 5.969-2.217 1.415-4.811 2.185-7.727 2.185-3.769 0-6.52-1.22-8.26-3.624-1.722-2.353-2.13-5.606-1.226-9.699.921-4.16 2.705-7.485 5.383-9.805 2.414-2.08 5.178-3.234 8.206-3.463zm-93.308.48h6.341s.783 15.178.8 15.4c.255-.544.454-1.002.48-1.067l6.98-14.335h5.808s.533 14.995.533 15.081c.17-.306 7.94-15.08 7.94-15.08h6.288l-13.855 25.577h-5.702s-.552-13.87-.586-14.654c-2.353 4.826-7.14 14.654-7.14 14.654h-5.862l-2.025-25.578zm-148.89 4.848c-1.469.062-2.803.592-4.05 1.6-.989.783-1.656 1.86-2.185 3.036h10.498c.017-.187.054-.415.054-.586 0-.972-.173-1.726-.48-2.238-.75-1.228-1.863-1.812-3.517-1.812-.1 0-.222-.004-.32 0zm27.763 0c-1.469.062-2.803.592-4.05 1.6-.989.783-1.639 1.86-2.185 3.036h10.498c.017-.187.054-.415.054-.586 0-.972-.156-1.726-.48-2.238a4.288 4.288 0 0 0-.533-.693c-.712-.735-1.692-1.119-2.984-1.119-.1 0-.222-.004-.32 0zm214.75 0c-1.51.047-2.921.558-4.21 1.6-.972.783-1.639 1.86-2.185 3.036h10.444c.017-.187.054-.415.054-.586 0-.972-.156-1.726-.48-2.238-.733-1.21-1.863-1.794-3.517-1.812-.049 0-.058-.002-.106 0zm-139.62.107c-1.41.167-2.72.81-3.943 1.918-1.467 1.33-2.53 3.42-3.144 6.182-.256 1.16-.373 2.15-.373 3.037 0 1.211.232 2.162.692 2.878.123.184.286.378.427.533.758.805 1.816 1.225 3.144 1.225 1.722 0 3.24-.641 4.69-1.971 1.466-1.347 2.512-3.458 3.143-6.288.58-2.592.499-4.528-.32-5.755-.784-1.194-1.93-1.759-3.517-1.759-.269 0-.538-.031-.799 0zm96.292 9.325c-1.45.393-3.074.723-5.222 1.013-1.603.239-2.746.49-3.41.746-.58.239-1.047.57-1.44 1.012-.375.427-.626.874-.745 1.386a3.738 3.738 0 0 0-.054.586v.053c.002.041-.004.121 0 .16.011.078.032.195.054.267.008.023.044.083.053.106.019.046.03.116.053.16.024.044.078.119.107.16.044.061.105.156.16.213.426.478 1.276.693 2.504.693 1.347 0 2.643-.256 3.837-.853a7.46 7.46 0 0 0 2.824-2.45c.512-.717.921-1.82 1.28-3.252z" style="fill-opacity:.94118;fill-rule:evenodd;fill:#fff" transform="translate(1.763 -333.31)"/><g style="fill-opacity:.94118;fill-rule:evenodd;fill:#fff;stroke-width:1pt"><path d="M.03 0H0c.97.01 1.61.34 2.04 1.05.19.3.29.75.29 1.32 0 .1-.02.23-.03.34h.04c0-.11.02-.24.02-.34 0-.57-.09-1.02-.28-1.32C1.65.33 1 0 .03 0z" style="fill-opacity:.94118;fill:#fff" transform="translate(361.213 230.6) scale(1.7052)"/></g><g style="fill-opacity:.94118;fill:#fff"><g style="fill-opacity:.94118;fill-rule:evenodd;fill:#fff;stroke-width:1pt"><path d="M0 36h7.46l3.35-14h12.12l1.56-6H12.32l2.02-9h12.95l1.56-7H8.4L0 36z" style="fill-opacity:.94118;fill:#fff" transform="translate(14.224 310.12) scale(1.7052)"/></g><g style="fill-opacity:.94118;fill-rule:evenodd;fill:#fff;stroke-width:1pt"><path d="m7.51 26 2.24-9.4c1.18-5.09 3.67-9.6 8.38-9.6.42 0 .83.21 1.14.26L21.09.05c-.42 0-.88-.05-1.4-.05-3.47 0-6.38 2.44-8.32 5.94h-.2c.29-1.71.54-3.33.73-4.94H5.47c-.37 2.08-.94 6.15-1.81 9.82L0 26h7.51z" style="fill-opacity:.94118;fill:#fff" transform="translate(58.474 327.173) scale(1.7052)"/></g><g style="fill-opacity:.94118;fill-rule:evenodd;fill:#fff;stroke-width:1pt"><path d="M20.06 19.25c-2.07 1.01-4.43.75-7.18.75-2.17 0-3.85-.38-4.77-1.12-.48-.81-.68-2.07-.64-2.88 10.13.27 16.52-2.07 16.84-8.47C24.55 2.7 21.02 0 15.89 0 6.73 0 .73 8.08.34 15.86 0 22.65 3.52 26 10.78 26c2.79 0 6.49-.32 9.52-1.23l-.24-5.52zM17.32 7.53c-.12 2.38-3.06 2.52-8.85 2.47.63-2.09 2.75-4 6.22-4 1.71 0 2.69.65 2.63 1.53z" style="fill-opacity:.94118;fill:#fff" transform="translate(93.653 327.173) scale(1.7052)"/></g><g style="fill-opacity:.94118;fill-rule:evenodd;fill:#fff;stroke-width:1pt"><path d="M20.05 19.25c-2.07 1.01-4.43.75-7.17.75-2.18 0-3.85-.38-4.77-1.12-.48-.81-.69-2.07-.65-2.88 10.14.27 16.52-2.07 16.85-8.47C24.55 2.7 21.02 0 15.89 0 6.72 0 .72 8.08.33 15.86 0 22.65 3.52 26 10.77 26c2.8 0 6.5-.32 9.53-1.23l-.25-5.52zM17.32 7.53c-.12 2.38-3.06 2.52-8.86 2.47.64-2.09 2.75-4 6.22-4 1.71 0 2.7.65 2.64 1.53z" style="fill-opacity:.94118;fill:#fff" transform="translate(138.874 327.173) scale(1.7052)"/></g><g style="fill-opacity:.94118;fill-rule:evenodd;fill:#fff;stroke-width:1pt"><path d="M22.74 26c.06-3.17.82-8.15 1.61-11.42L27.56 1c-2.04-.69-5.22-1-8.28-1C6.86 0 .7 9.2.27 17.82 0 23.23 2.93 26 7.49 26c2.95 0 6.28-1.43 8.87-5.73h.11c-.2 2.07-.44 4.08-.57 5.73h6.84zm-5.13-14.28C16.15 18.08 13.17 20 10.95 20c-2.07 0-2.97-1.47-2.85-3.61C8.34 11.56 12.16 6 16.98 6c.78 0 1.39-.14 1.96-.28l-1.33 6z" style="fill-opacity:.94118;fill:#fff" transform="translate(200.108 327.173) scale(1.7052)"/></g><g style="fill-opacity:.94118;fill-rule:evenodd;fill:#fff;stroke-width:1pt"><path d="M0 24.82c1.44 1.12 4.46 1.13 7.61 1.18 6.73.05 11.81-2.89 12.11-8.29.17-3.6-2.62-5.73-5.35-7.16-1.97-.95-2.96-1.86-2.91-2.92C11.53 6.2 12.87 6 14.84 6c2.22 0 4 .27 5.02.47l2.02-5.42C20.73.36 18.43 0 15.48 0 8.95 0 4.17 3.45 3.9 8.69c-.16 3.24 2.17 5.42 4.99 6.9 2.28 1.17 3.06 2.07 3 3.34-.07 1.28-1.21 1.07-3.28 1.07-2.43 0-5.12-.32-6.54-.54L0 24.82z" style="fill-opacity:.94118;fill:#fff" transform="translate(247.223 327.173) scale(1.7052)"/></g><g style="fill-opacity:.94118;fill-rule:evenodd;fill:#fff;stroke-width:1pt"><path d="m7.45 37 6.05-25H6.09L0 37h7.45zm3.47-28c2.54 0 4.8-2.1 4.94-5.7C15.98.86 14.4 0 12.07 0 9.64 0 7.42 1.58 7.29 3.94 7.17 6.32 8.75 9 10.92 9z" style="fill-opacity:.94118;fill:#fff" transform="translate(302.557 308.415) scale(1.7052)"/></g><g style="fill-opacity:.94118;fill-rule:evenodd;fill:#fff;stroke-width:1pt"><path d="m7.46 25.31 2.64-11.26c1.37-5.73 4.32-7.74 6.75-7.74 1.92 0 2.48.82 2.39 2.01-.05.96-.2 1.97-.4 2.87l-3.36 14.12h7.46l3.54-14.81c.27-1.28.57-3.19.63-4.35C27.33 1.64 25.08 0 20.94 0c-3.32 0-6.55 1.54-9.1 4.88h-.1l.68-4.57H5.84c-.43 2.14-.98 4.73-1.76 7.75L0 25.31h7.46z" style="fill-opacity:.94118;fill:#fff" transform="translate(326.924 328.35) scale(1.7052)"/></g><g style="fill-opacity:.94118;fill-rule:evenodd;fill:#fff;stroke-width:1pt"><path d="M0 36h7.46l3.36-14h12.11l1.56-6H12.32l2.02-9h12.95l1.56-7H8.4L0 36z" style="fill-opacity:.94118;fill:#fff" transform="translate(394.382 310.12) scale(1.7052)"/></g><g style="fill-opacity:.94118;fill-rule:evenodd;fill:#fff;stroke-width:1pt"><path d="m7.51 26 2.24-9.4c1.18-5.09 3.67-9.6 8.38-9.6.42 0 .83.21 1.14.26L21.09.05c-.42 0-.88-.05-1.4-.05-3.47 0-6.38 2.44-8.32 5.94h-.2c.29-1.71.54-3.33.73-4.94H5.47c-.36 2.08-.94 6.15-1.81 9.82L0 26h7.51z" style="fill-opacity:.94118;fill:#fff" transform="translate(438.632 327.173) scale(1.7052)"/></g><g style="fill-opacity:.94118;fill-rule:evenodd;fill:#fff;stroke-width:1pt"><path d="M20.06 19.25c-2.07 1.01-4.43.75-7.18.75-2.17 0-3.85-.38-4.77-1.12-.48-.81-.68-2.07-.64-2.88 10.13.27 16.52-2.07 16.84-8.47C24.55 2.7 21.02 0 15.89 0 6.73 0 .73 8.08.34 15.86 0 22.65 3.53 26 10.78 26c2.79 0 6.5-.32 9.52-1.23l-.24-5.52zM17.32 7.53c-.12 2.38-3.06 2.52-8.85 2.47.63-2.09 2.75-4 6.22-4 1.71 0 2.69.65 2.63 1.53z" style="fill-opacity:.94118;fill:#fff" transform="translate(473.81 327.173) scale(1.7052)"/></g><g style="fill-opacity:.94118;fill-rule:evenodd;fill:#fff;stroke-width:1pt"><path d="M20.05 19.25c-2.07 1.01-4.43.75-7.17.75-2.18 0-3.85-.38-4.77-1.12-.48-.81-.69-2.07-.65-2.88 10.14.27 16.52-2.07 16.85-8.47C24.55 2.7 21.02 0 15.89 0 6.72 0 .72 8.08.33 15.86 0 22.65 3.52 26 10.77 26c2.8 0 6.5-.32 9.53-1.23l-.25-5.52zM17.32 7.53c-.12 2.38-3.06 2.52-8.86 2.47.64-2.09 2.75-4 6.22-4 1.71 0 2.7.65 2.64 1.53z" style="fill-opacity:.94118;fill:#fff" transform="translate(519.032 327.173) scale(1.7052)"/></g><g style="fill-opacity:.94118;fill-rule:evenodd;fill:#fff;stroke-width:1pt"><path d="M23.31 0 20.5 11.36c-1.02-.42-2.35-.36-3.39-.36C7.53 11 .75 19.2.3 28.08 0 34.34 3.34 37 7.64 37c3.01 0 6.18-1.33 8.58-4.77h.1L15.75 37h6.78c.31-3 .96-6.57 1.69-9.83L30.71 0h-7.4zm-5.84 24.42C16.3 29.35 13.54 31 11.36 31c-2.17 0-3.38-1.51-3.23-4.2.25-4.98 3.67-9.8 8.12-9.8 1.25 0 2.32.19 2.91.47l-1.69 6.95z" style="fill-opacity:.94118;fill:#fff" transform="translate(564.015 308.415) scale(1.7052)"/></g><g style="fill-opacity:.94118;fill-rule:evenodd;fill:#fff;stroke-width:1pt"><path d="M10.61 26c8.7 0 15.41-6.59 15.88-15.56C26.78 4.5 23.08 0 16.25 0 7.23 0 .76 7.3.31 16.12 0 22.54 4.14 26 10.61 26zm1.17-6c-2.54 0-3.94-1.62-3.79-4.04.2-4.03 2.69-9.96 6.98-9.96 2.96 0 3.87 2.27 3.75 4.5-.22 4.4-2.9 9.5-6.94 9.5z" style="fill-opacity:.94118;fill:#fff" transform="translate(614.676 327.173) scale(1.7052)"/></g><g style="fill-opacity:.94118;fill-rule:evenodd;fill:#fff;stroke-width:1pt"><path d="m7.2 26 2.7-11.42C11.03 9.49 13.85 6 16.38 6c1.82 0 2.32 1.33 2.23 3.07-.05.9-.25 1.91-.46 2.91L14.81 26h7.2l2.7-11.47C25.95 9.28 28.61 6 31.09 6c1.71 0 2.42 1.22 2.34 2.96-.05 1.01-.26 2.12-.52 3.13L29.67 26h7.25l3.49-14.81c.27-1.33.58-3.4.63-4.46.22-4.4-1.93-6.73-5.81-6.73-3.32 0-6.55 1.5-9 4.66C26.14 2.38 24.51 0 20.47 0c-3.27 0-6.39 1.48-8.89 4.83h-.1L12.15 1H5.73c-.42 2.14-.93 4.73-1.71 7.75L0 26h7.2z" style="fill-opacity:.94118;fill:#fff" transform="translate(663.377 327.173) scale(1.7052)"/></g></g><path d="M402.98 590.42c.692 1.78 1.384 3.556 2.106 5.294 1.11 2.36 2.394 4.62 3.937 6.73 8.335 11.331 22.295 17.535 40.019 19.08h19.065c6.028-.47 12.345-1.348 18.892-2.628 11.292-2.208 23.262-5.6 35.693-10.132 9.417-3.434 19.094-7.496 28.915-12.218 21.387-10.252 43.48-23.475 65.156-39.432a432.8 432.8 0 0 0 20.565-16.117 409.2 409.2 0 0 0 17.334-15.26c15.416-14.856 27.054-29.945 33.645-43.194 6.864-13.797 8.234-25.594 2.61-33.025-3.447-4.562-9.215-7.006-16.642-7.581 33.458-25.105 52.955-55.558 45.96-74.76-2.22-6.127-7.109-10.698-14.118-13.226-3.115-1.12-6.62-1.83-10.441-2.154h-10.297c-14.378 1.037-35.287 6.186-53.025 14.88" style="fill:none;stroke-width:8.5261px;stroke:#fff" transform="translate(1.763 -333.31)"/></svg>